<?xml version="1.0" encoding="utf-8"?>
<!-- Generator: Adobe Illustrator 19.1.0, SVG Export Plug-In . SVG Version: 6.00 Build 0)  -->
<svg version="1.1" id="Camada_1" xmlns="http://www.w3.org/2000/svg" xmlns:xlink="http://www.w3.org/1999/xlink" x="0px" y="0px"
	 width="28.2px" height="38.3px" viewBox="0 0 28.2 38.3" style="enable-background:new 0 0 28.2 38.3;" xml:space="preserve">
<style type="text/css">
	.st0{fill:#FFFFFF;}
</style>
<g>
	<g>
		<path class="st0" d="M20.7,0.6H7.5C6.2,0.6,5.1,1.7,5.1,3C3.8,3,2.7,4.1,2.7,5.4c-1.3,0-2.4,1.1-2.4,2.4v27.6
			c0,1.3,1.1,2.4,2.4,2.4h18c1.3,0,2.4-1.1,2.4-2.4c1.3,0,2.4-1.1,2.4-2.4c1.3,0,2.4-1.1,2.4-2.4V9L20.7,0.6z M20.7,2.4L26.3,9h-4.4
			c-0.6,0-1.2-0.6-1.2-1.2V2.4z M20.7,36.5h-18c-0.6,0-1.2-0.5-1.2-1.2V7.8c0-0.6,0.5-1.2,1.2-1.2v26.4c0,1.3,1.1,2.4,2.4,2.4h16.8
			C21.9,35.9,21.4,36.5,20.7,36.5L20.7,36.5z M24.3,32.9c0,0.6-0.5,1.2-1.2,1.2h-18c-0.6,0-1.2-0.5-1.2-1.2V5.4
			c0-0.6,0.5-1.2,1.2-1.2v26.4c0,1.3,1.1,2.4,2.4,2.4H24.3z M26.7,30.5c0,0.6-0.5,1.2-1.2,1.2h-18c-0.6,0-1.2-0.5-1.2-1.2V3
			c0-0.6,0.5-1.2,1.2-1.2h12v6c0,1.3,1.1,2.4,2.4,2.4h4.8V30.5z M26.7,30.5"/>
	</g>
	<path class="st0" d="M17.7,4.5H8.2C8,4.5,7.8,4.4,7.8,4.2C7.8,4,8,3.8,8.2,3.8h9.5C17.9,3.8,18,4,18,4.2C18,4.4,17.9,4.5,17.7,4.5z
		"/>
	<path class="st0" d="M17.7,7.7H8.2C8,7.7,7.8,7.5,7.8,7.3c0-0.2,0.2-0.4,0.4-0.4h9.5c0.2,0,0.4,0.2,0.4,0.4
		C18,7.5,17.9,7.7,17.7,7.7z"/>
	<path class="st0" d="M17.7,10.8H8.2c-0.2,0-0.4-0.2-0.4-0.4S8,10,8.2,10h9.5c0.2,0,0.4,0.2,0.4,0.4S17.9,10.8,17.7,10.8z"/>
	<path class="st0" d="M25,13.9H8.2c-0.2,0-0.4-0.2-0.4-0.4s0.2-0.4,0.4-0.4H25c0.2,0,0.4,0.2,0.4,0.4S25.2,13.9,25,13.9z"/>
	<path class="st0" d="M25,17H8.2c-0.2,0-0.4-0.2-0.4-0.4s0.2-0.4,0.4-0.4H25c0.2,0,0.4,0.2,0.4,0.4S25.2,17,25,17z"/>
	<path class="st0" d="M25,20.2H8.2c-0.2,0-0.4-0.2-0.4-0.4c0-0.2,0.2-0.4,0.4-0.4H25c0.2,0,0.4,0.2,0.4,0.4
		C25.4,20,25.2,20.2,25,20.2z"/>
	<path class="st0" d="M25,23.3H8.2c-0.2,0-0.4-0.2-0.4-0.4c0-0.2,0.2-0.4,0.4-0.4H25c0.2,0,0.4,0.2,0.4,0.4
		C25.4,23.1,25.2,23.3,25,23.3z"/>
	<path class="st0" d="M25,26.4H8.2c-0.2,0-0.4-0.2-0.4-0.4s0.2-0.4,0.4-0.4H25c0.2,0,0.4,0.2,0.4,0.4S25.2,26.4,25,26.4z"/>
	<path class="st0" d="M25,29.5H8.2c-0.2,0-0.4-0.2-0.4-0.4c0-0.2,0.2-0.4,0.4-0.4H25c0.2,0,0.4,0.2,0.4,0.4
		C25.4,29.3,25.2,29.5,25,29.5z"/>
</g>
</svg>
