<?xml version="1.0" encoding="utf-8"?>
<!-- Generator: Adobe Illustrator 19.0.0, SVG Export Plug-In . SVG Version: 6.00 Build 0)  -->
<svg version="1.1" id="Camada_1" xmlns="http://www.w3.org/2000/svg" xmlns:xlink="http://www.w3.org/1999/xlink" x="0px" y="0px"
	 width="28.9px" height="38.2px" viewBox="-581 401.7 28.9 38.2" style="enable-background:new -581 401.7 28.9 38.2;"
	 xml:space="preserve">
<style type="text/css">
	.st0{fill:#FFFFFF;}
</style>
<g>
	<path class="st0" d="M-561.8,402.1h-15.7c-2.2,0-3.3,1.3-3.3,2.7v30.8c0,2.2,1.8,4,4,4h20.5c2.2,0,4-1.8,4-4v-24L-561.8,402.1z
		 M-556.7,438.1h-18.7c-2,0-4-1-4-4v-29c0-1,1.1-1.6,1.9-1.6h15v5.5c0,1.6,1.3,3,3,3h5.8l0.1,23.2
		C-553.6,437.4-555.6,438.1-556.7,438.1L-556.7,438.1z"/>
	<path class="st0" d="M-564.4,405.5h-13c-0.4,0-0.7,0.3-0.7,0.7c0,0.4,0.3,0.7,0.7,0.7h13c0.4,0,0.7-0.3,0.7-0.7
		C-563.8,405.9-564,405.5-564.4,405.5L-564.4,405.5z"/>
	<path class="st0" d="M-564.4,408.3h-13c-0.4,0-0.7,0.3-0.7,0.7c-0.1,0.4,0.2,0.7,0.7,0.7h13c0.4,0,0.7-0.3,0.7-0.7
		C-563.8,408.6-564,408.3-564.4,408.3L-564.4,408.3z"/>
</g>
<g>
	<path class="st0" d="M-575.4,434.8v-21.1h4.6c0.7,0,1.3,0.1,1.7,0.3c0.4,0.2,0.8,0.6,1.1,1.1c0.3,0.5,0.5,1.3,0.6,2.2
		c0.1,0.9,0.2,2,0.2,3.4c0,1.3-0.1,2.5-0.2,3.4c-0.1,0.9-0.3,1.7-0.6,2.2c-0.3,0.6-0.6,1-1.1,1.2c-0.5,0.3-1.1,0.4-1.8,0.4h-2v6.8
		H-575.4z M-571.3,425.5c0.2,0,0.4-0.1,0.6-0.2c0.2-0.1,0.3-0.4,0.4-0.8c0.1-0.4,0.2-0.9,0.3-1.5c0.1-0.6,0.1-1.4,0.1-2.4
		c0-0.9,0-1.7-0.1-2.3c-0.1-0.6-0.1-1.1-0.3-1.4s-0.3-0.5-0.4-0.6s-0.4-0.2-0.6-0.2h-1.6v9.4H-571.3z"/>
	<path class="st0" d="M-559.9,434.8c-0.1-0.1-0.1-0.2-0.1-0.3s-0.1-0.3-0.1-0.5s-0.1-0.5-0.1-0.9c0-0.4-0.1-0.9-0.1-1.5
		c0-0.7-0.1-1.4-0.1-2.1c0-0.7-0.1-1.4-0.2-2.1c-0.1-0.6-0.2-0.9-0.4-1.1c-0.2-0.2-0.4-0.3-0.8-0.3h-1.2v8.9h-2.6v-21.1h4.7
		c0.7,0,1.2,0.1,1.6,0.2c0.4,0.2,0.7,0.4,1,0.7c0.2,0.2,0.3,0.5,0.5,0.7c0.1,0.3,0.2,0.6,0.3,1c0.1,0.4,0.1,0.8,0.2,1.3
		c0,0.5,0,1.1,0,1.7c0,0.7,0,1.2,0,1.7c0,0.5-0.1,0.8-0.1,1.2c0,0.3-0.1,0.6-0.2,0.8c-0.1,0.2-0.1,0.4-0.2,0.6
		c-0.1,0.3-0.3,0.6-0.5,0.7c-0.2,0.2-0.4,0.3-0.6,0.4v0.1c0.2,0.1,0.4,0.3,0.6,0.5c0.2,0.3,0.3,0.7,0.4,1.2c0.1,1,0.3,1.9,0.3,2.9
		c0.1,1,0.2,2,0.2,3.1c0,0.4,0.1,0.8,0.1,1.1c0,0.3,0.1,0.6,0.2,0.9v0.1H-559.9z M-562,423.6c0.4,0,0.6,0,0.9-0.1
		c0.2-0.1,0.4-0.3,0.6-0.6c0.1-0.1,0.1-0.3,0.2-0.4c0-0.1,0.1-0.3,0.1-0.6c0-0.3,0-0.6,0.1-0.9c0-0.4,0-0.9,0-1.5c0-0.5,0-0.9,0-1.2
		c0-0.3,0-0.6,0-0.8s-0.1-0.4-0.1-0.5c0-0.1-0.1-0.2-0.2-0.3c-0.2-0.4-0.6-0.5-1-0.5h-1.6v7.5H-562z"/>
</g>
</svg>
