<?xml version="1.0" encoding="utf-8"?>
<!-- Generator: Adobe Illustrator 19.1.0, SVG Export Plug-In . SVG Version: 6.00 Build 0)  -->
<svg version="1.1" id="Camada_1" xmlns="http://www.w3.org/2000/svg" xmlns:xlink="http://www.w3.org/1999/xlink" x="0px" y="0px"
	 width="34.2px" height="34.6px" viewBox="0 0 34.2 34.6" style="enable-background:new 0 0 34.2 34.6;" xml:space="preserve">
<style type="text/css">
	.st0{fill:#FFFFFF;}
</style>
<g>
	<path class="st0" d="M23.6,5.2c0-0.3-0.2-0.5-0.5-0.5H8.9c-0.3,0-0.5,0.2-0.5,0.5c0,0.3,0.2,0.5,0.5,0.5h14.2
		C23.4,5.7,23.6,5.5,23.6,5.2L23.6,5.2z M23.6,5.2"/>
	<path class="st0" d="M7.2,5.7c0.3,0,0.5-0.2,0.5-0.5c0-0.3-0.2-0.5-0.5-0.5H6.4c-0.3,0-0.5,0.2-0.5,0.5c0,0.3,0.2,0.5,0.5,0.5H7.2z
		 M7.2,5.7"/>
	<path class="st0" d="M4.8,5.7c0.3,0,0.5-0.2,0.5-0.5c0-0.3-0.2-0.5-0.5-0.5H4.1c-0.3,0-0.5,0.2-0.5,0.5c0,0.3,0.2,0.5,0.5,0.5H4.8z
		 M4.8,5.7"/>
	<path class="st0" d="M12.4,15.4c0.3,0,0.5-0.2,0.5-0.5V8.3c0-0.3-0.2-0.5-0.5-0.5H4.3C4,7.8,3.8,8,3.8,8.3v12.6
		c0,0.3,0.2,0.5,0.5,0.5h8.1c0.3,0,0.5-0.2,0.5-0.5v-3.7c0-0.3-0.2-0.5-0.5-0.5c-0.3,0-0.5,0.2-0.5,0.5v3.2h-7V8.8h7v6.1
		C11.9,15.2,12.1,15.4,12.4,15.4L12.4,15.4z M12.4,15.4"/>
	<path class="st0" d="M15.4,29.9h8.1c0.3,0,0.5-0.2,0.5-0.5v-4.9c0-0.3-0.2-0.5-0.5-0.5h-8.1c-0.3,0-0.5,0.2-0.5,0.5v4.9
		C14.9,29.7,15.1,29.9,15.4,29.9L15.4,29.9z M15.9,25h7v3.8h-7L15.9,25L15.9,25z M15.9,25"/>
	<path class="st0" d="M12.4,23.1H4.3c-0.3,0-0.5,0.2-0.5,0.5c0,0.3,0.2,0.5,0.5,0.5h8.1c0.3,0,0.5-0.2,0.5-0.5
		C12.9,23.3,12.7,23.1,12.4,23.1L12.4,23.1z M12.4,23.1"/>
	<path class="st0" d="M12.4,25.9h-1.5c-0.3,0-0.5,0.2-0.5,0.5c0,0.3,0.2,0.5,0.5,0.5h1.5c0.3,0,0.5-0.2,0.5-0.5
		C12.9,26.1,12.7,25.9,12.4,25.9L12.4,25.9z M12.4,25.9"/>
	<path class="st0" d="M4.3,26.9h4.5c0.3,0,0.5-0.2,0.5-0.5c0-0.3-0.2-0.5-0.5-0.5H4.3c-0.3,0-0.5,0.2-0.5,0.5
		C3.8,26.7,4,26.9,4.3,26.9L4.3,26.9z M4.3,26.9"/>
	<path class="st0" d="M4.3,29.7h8.1c0.3,0,0.5-0.2,0.5-0.5c0-0.3-0.2-0.5-0.5-0.5H4.3c-0.3,0-0.5,0.2-0.5,0.5
		C3.8,29.5,4,29.7,4.3,29.7L4.3,29.7z M4.3,29.7"/>
	<path class="st0" d="M23.4,7.8h-3.8c-0.3,0-0.5,0.2-0.5,0.5c0,0.3,0.2,0.5,0.5,0.5h3.8c0.3,0,0.5-0.2,0.5-0.5
		C23.9,8,23.7,7.8,23.4,7.8L23.4,7.8z M23.4,7.8"/>
	<path class="st0" d="M15.4,7.8c-0.3,0-0.5,0.2-0.5,0.5c0,0.3,0.2,0.5,0.5,0.5h1.8c0.3,0,0.5-0.2,0.5-0.5c0-0.3-0.2-0.5-0.5-0.5
		H15.4z M15.4,7.8"/>
	<path class="st0" d="M23.4,10.6h-8.1c-0.3,0-0.5,0.2-0.5,0.5c0,0.3,0.2,0.5,0.5,0.5h8.1c0.3,0,0.5-0.2,0.5-0.5
		C23.9,10.8,23.7,10.6,23.4,10.6L23.4,10.6z M23.4,10.6"/>
	<path class="st0" d="M23.4,13.4h-8.1c-0.3,0-0.5,0.2-0.5,0.5c0,0.3,0.2,0.5,0.5,0.5h8.1c0.3,0,0.5-0.2,0.5-0.5
		C23.9,13.6,23.7,13.4,23.4,13.4L23.4,13.4z M23.4,13.4"/>
	<path class="st0" d="M23.4,16h-2.2c-0.3,0-0.5,0.2-0.5,0.5c0,0.3,0.2,0.5,0.5,0.5h2.2c0.3,0,0.5-0.2,0.5-0.5
		C23.9,16.2,23.7,16,23.4,16L23.4,16z M23.4,16"/>
	<path class="st0" d="M15.4,17h3.8c0.3,0,0.5-0.2,0.5-0.5c0-0.3-0.2-0.5-0.5-0.5h-3.8c-0.3,0-0.5,0.2-0.5,0.5
		C14.9,16.8,15.1,17,15.4,17L15.4,17z M15.4,17"/>
	<path class="st0" d="M23.4,18.8h-8.1c-0.3,0-0.5,0.2-0.5,0.5c0,0.3,0.2,0.5,0.5,0.5h8.1c0.3,0,0.5-0.2,0.5-0.5
		C23.9,19,23.7,18.8,23.4,18.8L23.4,18.8z M23.4,18.8"/>
	<path class="st0" d="M23.4,21.6h-8.1c-0.3,0-0.5,0.2-0.5,0.5c0,0.3,0.2,0.5,0.5,0.5h8.1c0.3,0,0.5-0.2,0.5-0.5
		C23.9,21.8,23.7,21.6,23.4,21.6L23.4,21.6z M23.4,21.6"/>
	<path class="st0" d="M27.9,24.1h2.2c0.3,0,0.5-0.2,0.5-0.5c0-0.3-0.2-0.5-0.5-0.5h-2.2c-0.3,0-0.5,0.2-0.5,0.5
		C27.4,23.9,27.6,24.1,27.9,24.1L27.9,24.1z M27.9,24.1"/>
	<path class="st0" d="M1.4,25.7c0.3,0,0.5-0.2,0.5-0.5V1.8h24L26,8c0,0.3,0.2,0.5,0.5,0.5h0C26.7,8.5,27,8.3,27,8V1.3
		c0-0.3-0.2-0.5-0.5-0.5H1.4C1.1,0.8,0.9,1,0.9,1.3v23.9C0.9,25.5,1.1,25.7,1.4,25.7L1.4,25.7z M1.4,25.7"/>
	<path class="st0" d="M32.7,20.2H27v-9.4c0-0.3-0.2-0.5-0.5-0.5c-0.3,0-0.6,0.2-0.6,0.5l0,19.4c0,1,0.4,2,1.1,2.6H4.5
		c-1.5,0-2.6-1.2-2.6-2.6v-2.7c0-0.3-0.2-0.5-0.5-0.5c-0.3,0-0.5,0.2-0.5,0.5v2.7c0,2,1.6,3.6,3.6,3.6h24.9c0,0,0,0,0,0
		c0.1,0,0.1,0,0.2,0c2,0,3.6-1.7,3.6-3.7v-9.3C33.3,20.5,33,20.2,32.7,20.2L32.7,20.2z M32.2,30.1c0,1.5-1.2,2.6-2.6,2.6
		c-1.5,0-2.6-1.2-2.6-2.6l0-0.4h3.1c0.3,0,0.5-0.2,0.5-0.5c0-0.3-0.2-0.5-0.5-0.5H27v-1.8h3.1c0.3,0,0.5-0.2,0.5-0.5
		c0-0.3-0.2-0.5-0.5-0.5H27v-4.6h5.3L32.2,30.1L32.2,30.1z M32.2,30.1"/>
</g>
</svg>
