<?xml version="1.0" encoding="utf-8"?>
<!-- Generator: Adobe Illustrator 19.1.0, SVG Export Plug-In . SVG Version: 6.00 Build 0)  -->
<svg version="1.1" id="Camada_1" xmlns="http://www.w3.org/2000/svg" xmlns:xlink="http://www.w3.org/1999/xlink" x="0px" y="0px"
	 width="45.3px" height="45.2px" viewBox="0 0 45.3 45.2" style="enable-background:new 0 0 45.3 45.2;" xml:space="preserve">
<style type="text/css">
	.st0{fill:#FFFFFF;}
</style>
<g>
	<g>
		<path class="st0" d="M20.5,44.9c11.1,0,20-9,20-20c0-3.4-0.8-6.6-2.3-9.4c-0.2,0-0.3,0-0.5,0c-0.1,0-0.2,0-0.3,0l-2.5-0.2L33,17.1
			c1.4,2.3,2.2,4.9,2.2,7.8c0,8.1-6.6,14.7-14.7,14.7S5.8,33,5.8,24.8s6.6-14.7,14.7-14.7c2.8,0,5.5,0.8,7.8,2.2l1.7-1.7l-0.2-2.9
			c0-0.2,0-0.5,0-0.7c-2.8-1.4-5.9-2.2-9.2-2.2c-11.1,0-20,9-20,20C0.5,35.9,9.4,44.9,20.5,44.9L20.5,44.9z M20.5,44.9"/>
		<path class="st0" d="M20.5,19.7c0.1,0,0.3,0,0.4,0l3.7-3.7l0.1-0.1C23.4,15.3,22,15,20.5,15c-5.5,0-9.9,4.4-9.9,9.9
			c0,5.5,4.4,9.9,9.9,9.9c5.5,0,9.9-4.4,9.9-9.9c0-1.5-0.3-2.9-0.9-4.2l-0.1,0.1l-3.7,3.7c0,0.1,0,0.3,0,0.4c0,2.9-2.3,5.2-5.2,5.2
			s-5.2-2.3-5.2-5.2S17.6,19.7,20.5,19.7L20.5,19.7z M20.5,19.7"/>
		<path class="st0" d="M41.2,7l1.2-1.2c0.5-0.5,0.5-1.4,0-2L41.5,3c-0.3-0.3-0.6-0.4-1-0.4c-0.4,0-0.7,0.1-1,0.4l-1.4,1.4l-0.3-3.6
			c0-0.3-0.2-0.4-0.5-0.4c-0.1,0-0.2,0-0.3,0.1l-5.4,5.4c-0.5,0.5-0.7,1.2-0.7,1.8l0,0.2l0.3,3.4l-1.9,1.9l-3.5,3.5l-0.1,0.1
			l-3.4,3.4L21,21.6c-0.2,0.2-0.3,0.5-0.3,0.7l-0.1,1.2c-0.1,0.7,0.5,1.3,1.2,1.3h0.1l1.2-0.1c0.3,0,0.6-0.1,0.8-0.3l10.5-10.5
			l3.1,0.2l0.1,0c0.1,0,0.1,0,0.2,0c0.6,0,1.2-0.2,1.7-0.7L44.7,8c0.3-0.3,0.1-0.8-0.3-0.8L41.2,7z M41.2,7"/>
	</g>
</g>
</svg>
