<?xml version="1.0" encoding="utf-8"?>
<!-- Generator: Adobe Illustrator 19.1.0, SVG Export Plug-In . SVG Version: 6.00 Build 0)  -->
<svg version="1.1" id="Camada_1" xmlns="http://www.w3.org/2000/svg" xmlns:xlink="http://www.w3.org/1999/xlink" x="0px" y="0px"
	 width="50.8px" height="42.3px" viewBox="0 0 50.8 42.3" style="enable-background:new 0 0 50.8 42.3;" xml:space="preserve">
<style type="text/css">
	.st0{fill:#FFFFFF;}
</style>
<g>
	<path class="st0" d="M28.6,30.7c-0.9,0.5-2,0.8-3.2,0.8c-1.2,0-2.3-0.3-3.2-0.8L7.9,21.9c0,0-1.3-0.8-1.3,1v8.8
		c0,4.6,8.4,9.6,18.8,9.6s18.8-5,18.8-9.6v-9.3c0-1.4-0.9-0.7-0.9-0.7L28.6,30.7z M28.6,30.7"/>
	<path class="st0" d="M49.2,14.9c1.1-0.7,1.1-1.8,0-2.5L27.4,1.5c-1.1-0.7-2.9-0.7-4,0L1.6,12.5c-1.1,0.7-1.1,1.8,0,2.5l21.8,13.4
		c1.1,0.7,2.9,0.7,4,0"/>
	<path class="st0" d="M48.3,34.7V20c0,0,0-0.7-0.4-0.5c-0.3,0.2-1.1,0.6-1.4,0.9c-0.3,0.3-0.3,0.9-0.3,0.9v13.4
		c0,0.2-0.2,0.3-0.2,0.3c-0.8,0.4-1.3,1.3-1.3,2.2c0,1.4,1.1,2.6,2.6,2.6c1.4,0,2.6-1.1,2.6-2.6c0-0.9-0.5-1.8-1.3-2.2
		C48.5,35,48.3,34.9,48.3,34.7L48.3,34.7z M48.3,34.7"/>
</g>
</svg>
