<?xml version="1.0" encoding="utf-8"?>
<!-- Generator: Adobe Illustrator 19.0.0, SVG Export Plug-In . SVG Version: 6.00 Build 0)  -->
<svg version="1.1" id="Camada_1" xmlns="http://www.w3.org/2000/svg" xmlns:xlink="http://www.w3.org/1999/xlink" x="0px" y="0px"
	 width="50.8px" height="37.2px" viewBox="-624 432.8 50.8 37.2" style="enable-background:new -624 432.8 50.8 37.2;"
	 xml:space="preserve">
<style type="text/css">
	.st0{fill:#FFFFFF;}
</style>
<g>
	<path class="st0" d="M-585.2,451.5c-1.6,0-3-1.3-3-3c0-1.6,1.3-3,3-3s3,1.3,3,3C-582.2,450.2-583.6,451.5-585.2,451.5L-585.2,451.5
		z M-585.2,459c-1.6,0-3-1.3-3-3c0-1.6,1.3-3,3-3s3,1.3,3,3C-582.2,457.7-583.6,459-585.2,459L-585.2,459z M-589.6,463.5
		c0,1.6-1.5,3.2-3.1,3.2h-17.9c-1.6,0-2.8-1.6-2.8-3.2v-14.9c0-1.6,1.2-3.2,2.8-3.2h17.9c1.6,0,3.1,1.6,3.1,3.2V463.5z
		 M-583.7,442.9h-11.1c-0.9,0-1.2-0.7-0.6-1.4l2.9-3.6c0.6-0.7,1.1-1.3,1.2-1.3c0,0,0.1,0,0.1,0c0.8,0,1.5-0.7,1.5-1.5
		c0-0.8-0.7-1.5-1.5-1.5c-0.8,0-1.5,0.7-1.5,1.5c0,0.1,0,0.2,0,0.3c0,0.1-0.4,0.8-1,1.5l-3.7,4.4c-0.6,0.7-1.2,1.3-1.3,1.3
		c-0.2,0-0.7-0.6-1.3-1.3l-3.7-4.4c-0.6-0.7-1-1.4-1-1.5c0-0.1,0-0.2,0-0.3c0-0.8-0.7-1.5-1.5-1.5c-0.8,0-1.5,0.7-1.5,1.5
		c0,0.8,0.7,1.5,1.5,1.5c0,0,0.1,0,0.1,0c0.1,0,0.6,0.5,1.2,1.2l2.9,3.6c0.6,0.7,0.3,1.4-0.6,1.4h-11.1c-1.6,0-3.1,1.1-3.1,2.7v20.9
		c0,1.6,1.5,2.7,3.1,2.7h29.8c1.6,0,3.2-1.1,3.2-2.7v-20.9C-580.5,443.9-582.1,442.9-583.7,442.9"/>
</g>
</svg>
