<?xml version="1.0" encoding="utf-8"?>
<!-- Generator: Adobe Illustrator 19.1.0, SVG Export Plug-In . SVG Version: 6.00 Build 0)  -->
<svg version="1.1" id="Camada_1" xmlns="http://www.w3.org/2000/svg" xmlns:xlink="http://www.w3.org/1999/xlink" x="0px" y="0px"
	 width="50.8px" height="37.2px" viewBox="0 0 50.8 37.2" style="enable-background:new 0 0 50.8 37.2;" xml:space="preserve">
<style type="text/css">
	.st0{fill:#FFFFFF;}
</style>
<g>
	<path class="st0" d="M49.9,36.9H29.2c-0.3,0-0.6-0.3-0.6-0.6v-2.6c0-0.3,0.3-0.6,0.6-0.6h20.7c0.3,0,0.6,0.3,0.6,0.6v2.6
		C50.5,36.7,50.2,36.9,49.9,36.9L49.9,36.9z M29.8,35.8h19.6v-1.5H29.8V35.8z M2,27.1c-0.2,0-0.5-0.2-0.6-0.4l-1.1-3.4
		c-0.1-0.3,0.1-0.6,0.4-0.7L18.2,17c0.1,0,0.3,0,0.4,0c0.1,0.1,0.2,0.2,0.3,0.3l0.1,0.4l8.7-2.8l-0.2-0.7c0-0.1,0-0.3,0-0.4
		c0.1-0.1,0.2-0.2,0.3-0.3l1.5-0.5l-0.3-0.9c0-0.1,0-0.3,0-0.4c0.1-0.1,0.2-0.2,0.3-0.3l0.9-0.3L30,9.7l-0.1,0
		c-0.1,0-0.3,0.1-0.4,0.1c-0.6,0-1.2-0.4-1.4-1L27.5,7c-0.5-1.5,0.4-3.2,1.9-3.7l9.2-2.9c0.3-0.1,0.6-0.1,0.9-0.1
		c1.3,0,2.4,0.8,2.8,2L42.8,4c0.2,0.8-0.2,1.6-1,1.9l-0.1,0l0.5,1.5l0.9-0.3c0.1,0,0.3,0,0.4,0c0.1,0.1,0.2,0.2,0.3,0.3l2.2,6.9
		c0,0.1,0,0.3,0,0.4c-0.1,0.1-0.2,0.2-0.3,0.3l-0.9,0.3l0.5,1.5l0.1,0c0.1,0,0.3-0.1,0.4-0.1c0.6,0,1.2,0.4,1.4,1l0.6,1.7
		c0.2,0.7,0.2,1.5-0.2,2.2c-0.4,0.7-1,1.2-1.7,1.4l-9.2,2.9c-0.3,0.1-0.6,0.1-0.9,0.1c-1.3,0-2.4-0.8-2.8-2l-0.6-1.7
		c-0.1-0.4-0.1-0.8,0.1-1.1c0.2-0.4,0.5-0.6,0.9-0.7l0.1,0L33,19.2l-0.9,0.3c-0.3,0.1-0.6-0.1-0.7-0.4l-0.3-0.9l-1.5,0.5
		c-0.3,0.1-0.6-0.1-0.7-0.4l-0.2-0.7l-8.7,2.8l0.1,0.4c0.1,0.3-0.1,0.6-0.4,0.7L2.1,27C2.1,27.1,2,27.1,2,27.1L2,27.1z M1.6,23.5
		l0.7,2.3l16.3-5.2L18,18.3L1.6,23.5z M39.7,19.9l-6,1.9c-0.1,0-0.1,0.1-0.2,0.2c0,0.1,0,0.2,0,0.2l0.6,1.7c0.2,0.7,0.9,1.2,1.7,1.2
		c0.2,0,0.4,0,0.5-0.1l9.2-2.9c0.4-0.1,0.8-0.5,1-0.9c0.2-0.4,0.3-0.9,0.1-1.3l-0.6-1.7C46,18,45.8,17.9,45.7,18L39.7,19.9z
		 M34.1,18.8l0.5,1.5l9.6-3l-0.5-1.5L34.1,18.8z M19.3,18.8l0.1,0.5l8.7-2.8l-0.1-0.5L19.3,18.8z M31.5,15.6l0.8,2.5l12.5-4
		l-1.9-5.8l-12.5,4l0.3,0.9v0L31.5,15.6z M28.8,14.5l0.9,2.9l1-0.3l-0.9-2.9L28.8,14.5z M31.1,9.3l0.5,1.5l9.6-3l-0.5-1.5L31.1,9.3z
		 M39.4,1.4c-0.2,0-0.4,0-0.5,0.1l-9.2,2.9c-0.9,0.3-1.4,1.3-1.1,2.2l0.6,1.7c0.1,0.2,0.2,0.3,0.4,0.2l11.9-3.8
		c0.2-0.1,0.3-0.2,0.2-0.4l-0.6-1.7C40.9,1.9,40.2,1.4,39.4,1.4L39.4,1.4z M39.4,1.4"/>
</g>
</svg>
