<?xml version="1.0" encoding="utf-8"?>
<!-- Generator: Adobe Illustrator 19.1.0, SVG Export Plug-In . SVG Version: 6.00 Build 0)  -->
<svg version="1.1" id="Camada_1" xmlns="http://www.w3.org/2000/svg" xmlns:xlink="http://www.w3.org/1999/xlink" x="0px" y="0px"
	 width="48.4px" height="44.3px" viewBox="0 0 48.4 44.3" style="enable-background:new 0 0 48.4 44.3;" xml:space="preserve">
<style type="text/css">
	.st0{fill:#FFFFFF;}
</style>
<g>
	<path class="st0" d="M46.7,1.3c-3,2.6-12.8,11.2-12.7,13.1l0,0.1l0.4,0.6h-0.7l-0.1,0c-0.6,0.1-1.7,1.9-2,3.3c-0.4,1.7,0,3,1.2,3.9
		c0.1,0.1,0.1,0.1,0.2,0.1l-0.6,0.8l-0.9-0.6l-0.4,0.5l0.9,0.6l-4.2,5.7l2-1.1l3-4.1l0.7,0.4l0.4-0.5l-0.6-0.4l0.6-0.9
		c0.7,0.3,1.5,0.3,2.4,0.2c1.9-0.3,3.7-1.6,4-2.3c0.1-0.2,0.1-0.4,0-0.5l-0.1-0.5l0.5,0.1l0.2,0c0.4-0.1,1-0.2,3.9-9.3
		c1.4-4.4,2.7-8.9,2.7-8.9l0.4-1.4L46.7,1.3z M40.6,19.1l-1.8-0.5l0.5,2c-0.3,0.4-1.7,1.4-3.3,1.7c-0.6,0.1-1.2,0.1-1.7-0.1l0,0
		L41,12l-0.2-0.1l-7.1,9.8l-0.1,0.2c-0.1,0-0.1-0.1-0.2-0.1c-0.7-0.5-1-1.2-1-2.2c0.1-1.6,1.2-3.2,1.5-3.6l2.3,0l-1.3-1.7
		c0.2-1,3.9-4.7,8.3-8.7l0.3,1.8L45,6.9C43.1,12.9,41.3,18.2,40.6,19.1L40.6,19.1z M45.2,6.2L44,6.6l-0.3-1.5
		c0.8-0.7,1.6-1.4,2.4-2.2C45.9,4,45.5,5.1,45.2,6.2L45.2,6.2z M45.2,6.2"/>
	<path class="st0" d="M36.7,39.7c-1.6-0.6-3.4-1-5.4-1c-4.9,0-9.6,1.9-11,2.5v-9L21,33V19.4c2.6-2.2,5.9-3.4,9.7-3.4
		c0.3,0,0.6,0,1,0l0.8-1.1C31.8,15,31.3,15,30.7,15c-4.1,0-7.6,1.2-10.5,3.7C17.3,16.2,13.8,15,9.6,15c-3.8,0-6.7,1.1-6.8,1.2
		l-0.4,0.1v2.3c-1.2,0.2-1.9,0.6-1.9,1.2v23.3h17.2c0.6,0.5,1.5,0.9,2.4,0.9s1.8-0.3,2.4-0.9h16.7v-20c-0.9,0.7-2.6,1.1-2.6,1.1
		V39.7z M20,41.2c-1.4-0.6-6.3-2.5-11.2-2.5c-1.9,0-3.7,0.3-5.1,0.9V17c0.9-0.3,3.2-1,6.1-1c3.8,0,7,1.1,9.7,3.4V33l0.7-0.7V41.2z
		 M20,41.2"/>
	<path class="st0" d="M5.3,20.5l0.2,0.9c5.9-1.6,11.2,1.3,11.2,1.4l0.4-0.8C17,21.8,11.6,18.8,5.3,20.5L5.3,20.5z M5.3,20.5"/>
	<path class="st0" d="M29.3,20.7c-1-0.1-3.5-0.4-6.6,0.5l0.3,0.9c2.9-0.9,5.1-0.6,6.2-0.5c0.2,0,0.4,0,0.5,0.1l0-0.9
		C29.7,20.7,29.5,20.7,29.3,20.7L29.3,20.7z M29.3,20.7"/>
	<path class="st0" d="M29.7,24l0-0.9c-0.1,0-0.2,0-0.4,0c-1-0.1-3.5-0.4-6.6,0.5l0.3,0.9c2.9-0.9,5.1-0.6,6.2-0.5
		C29.5,23.9,29.6,24,29.7,24L29.7,24z M29.7,24"/>
	<path class="st0" d="M22.8,25.8l0.3,0.9c2.9-0.9,4.6-0.7,5.5-0.6c0.2,0,0.4,0,0.5,0.1l0-0.9c-0.1,0-0.2,0-0.4,0
		C27.7,25.1,25.8,24.8,22.8,25.8L22.8,25.8z M22.8,25.8"/>
	<path class="st0" d="M5.3,23.1L5.6,24c5.9-1.6,11.2,1.3,11.2,1.4l0.4-0.8C17,24.4,11.6,21.4,5.3,23.1L5.3,23.1z M5.3,23.1"/>
	<path class="st0" d="M5.3,25.5l0.2,0.9c5.9-1.6,11.2,1.3,11.2,1.4l0.4-0.8C17,26.8,11.6,23.9,5.3,25.5L5.3,25.5z M5.3,25.5"/>
	<path class="st0" d="M5.3,28.2l0.2,0.9c5.9-1.6,11.2,1.3,11.2,1.4l0.4-0.8C17,29.5,11.6,26.5,5.3,28.2L5.3,28.2z M5.3,28.2"/>
	<path class="st0" d="M5.3,30.6l0.2,0.9c5.9-1.6,11.2,1.3,11.2,1.4l0.4-0.8C17,32,11.6,29,5.3,30.6L5.3,30.6z M5.3,30.6"/>
	<path class="st0" d="M5.3,33.2l0.2,0.9c5.9-1.6,11.2,1.3,11.2,1.4l0.4-0.8C17,34.5,11.6,31.5,5.3,33.2L5.3,33.2z M5.3,33.2"/>
	<path class="st0" d="M5.3,35.7l0.2,0.9c5.9-1.6,11.2,1.3,11.2,1.4l0.4-0.8C17,37,11.6,34.1,5.3,35.7L5.3,35.7z M5.3,35.7"/>
</g>
</svg>
