<?xml version="1.0" encoding="utf-8"?>
<!-- Generator: Adobe Illustrator 19.0.0, SVG Export Plug-In . SVG Version: 6.00 Build 0)  -->
<svg version="1.1" id="Camada_1" xmlns="http://www.w3.org/2000/svg" xmlns:xlink="http://www.w3.org/1999/xlink" x="0px" y="0px"
	 width="28.2px" height="38.3px" viewBox="-1261 401.6 28.2 38.3" style="enable-background:new -1261 401.6 28.2 38.3;"
	 xml:space="preserve">
<style type="text/css">
	.st0{fill:#FFFFFF;}
</style>
<g>
	<path class="st0" d="M-1235.4,408.4h-18.5c-1.4,0-2.6,1.2-2.6,2.6v16.8h-4c-0.2,0-0.4,0.2-0.4,0.4v2.2c0,1.4,1.2,2.6,2.6,2.6h18.5
		c1.4,0,2.6-1.2,2.6-2.6v-16.8h4c0.2,0,0.4-0.2,0.4-0.4V411C-1232.8,409.6-1234,408.4-1235.4,408.4L-1235.4,408.4z M-1258.4,432.2
		c-1,0-1.8-0.8-1.8-1.8v-1.8h4c0,0,0,0,0,0s0,0,0,0h13.7v1.8c0,0.7,0.3,1.3,0.7,1.8H-1258.4z M-1238,430.5c0,1-0.8,1.8-1.8,1.8
		s-1.8-0.8-1.8-1.8v-2.2c0-0.2-0.2-0.4-0.4-0.4h-13.7V411c0-1,0.8-1.8,1.8-1.8h16.6c-0.4,0.5-0.7,1.1-0.7,1.8V430.5z M-1233.6,412.8
		h-3.6V411c0-1,0.8-1.8,1.8-1.8c1,0,1.8,0.8,1.8,1.8V412.8z M-1233.6,412.8"/>
	<path class="st0" d="M-1252.2,412.4h-0.9c-0.2,0-0.4,0.2-0.4,0.4c0,0.2,0.2,0.4,0.4,0.4h0.9c0.2,0,0.4-0.2,0.4-0.4
		C-1251.8,412.6-1252,412.4-1252.2,412.4L-1252.2,412.4z M-1252.2,412.4"/>
	<path class="st0" d="M-1240.7,412.4h-9.7c-0.2,0-0.4,0.2-0.4,0.4c0,0.2,0.2,0.4,0.4,0.4h9.7c0.2,0,0.4-0.2,0.4-0.4
		C-1240.3,412.6-1240.5,412.4-1240.7,412.4L-1240.7,412.4z M-1240.7,412.4"/>
	<path class="st0" d="M-1252.2,414.6h-0.9c-0.2,0-0.4,0.2-0.4,0.4c0,0.2,0.2,0.4,0.4,0.4h0.9c0.2,0,0.4-0.2,0.4-0.4
		C-1251.8,414.8-1252,414.6-1252.2,414.6L-1252.2,414.6z M-1252.2,414.6"/>
	<path class="st0" d="M-1250.4,415.4h7.9c0.2,0,0.4-0.2,0.4-0.4c0-0.2-0.2-0.4-0.4-0.4h-7.9c-0.2,0-0.4,0.2-0.4,0.4
		C-1250.8,415.2-1250.7,415.4-1250.4,415.4L-1250.4,415.4z M-1250.4,415.4"/>
	<path class="st0" d="M-1252.2,416.8h-0.9c-0.2,0-0.4,0.2-0.4,0.4c0,0.2,0.2,0.4,0.4,0.4h0.9c0.2,0,0.4-0.2,0.4-0.4
		C-1251.8,417-1252,416.8-1252.2,416.8L-1252.2,416.8z M-1252.2,416.8"/>
	<path class="st0" d="M-1240.7,416.8h-9.7c-0.2,0-0.4,0.2-0.4,0.4c0,0.2,0.2,0.4,0.4,0.4h9.7c0.2,0,0.4-0.2,0.4-0.4
		C-1240.3,417-1240.5,416.8-1240.7,416.8L-1240.7,416.8z M-1240.7,416.8"/>
	<path class="st0" d="M-1252.2,419h-0.9c-0.2,0-0.4,0.2-0.4,0.4c0,0.2,0.2,0.4,0.4,0.4h0.9c0.2,0,0.4-0.2,0.4-0.4
		C-1251.8,419.2-1252,419-1252.2,419L-1252.2,419z M-1252.2,419"/>
	<path class="st0" d="M-1250.4,419.8h8.8c0.2,0,0.4-0.2,0.4-0.4c0-0.2-0.2-0.4-0.4-0.4h-8.8c-0.2,0-0.4,0.2-0.4,0.4
		C-1250.8,419.6-1250.7,419.8-1250.4,419.8L-1250.4,419.8z M-1250.4,419.8"/>
	<path class="st0" d="M-1252.2,421.2h-0.9c-0.2,0-0.4,0.2-0.4,0.4c0,0.2,0.2,0.4,0.4,0.4h0.9c0.2,0,0.4-0.2,0.4-0.4
		C-1251.8,421.4-1252,421.2-1252.2,421.2L-1252.2,421.2z M-1252.2,421.2"/>
	<path class="st0" d="M-1250.4,422h7.1c0.2,0,0.4-0.2,0.4-0.4c0-0.2-0.2-0.4-0.4-0.4h-7.1c-0.2,0-0.4,0.2-0.4,0.4
		C-1250.8,421.9-1250.7,422-1250.4,422L-1250.4,422z M-1250.4,422"/>
	<path class="st0" d="M-1252.2,423.4h-0.9c-0.2,0-0.4,0.2-0.4,0.4c0,0.2,0.2,0.4,0.4,0.4h0.9c0.2,0,0.4-0.2,0.4-0.4
		C-1251.8,423.6-1252,423.4-1252.2,423.4L-1252.2,423.4z M-1252.2,423.4"/>
	<path class="st0" d="M-1240.7,423.4h-9.7c-0.2,0-0.4,0.2-0.4,0.4c0,0.2,0.2,0.4,0.4,0.4h9.7c0.2,0,0.4-0.2,0.4-0.4
		C-1240.3,423.6-1240.5,423.4-1240.7,423.4L-1240.7,423.4z M-1240.7,423.4"/>
	<path class="st0" d="M-1252.2,425.6h-0.9c-0.2,0-0.4,0.2-0.4,0.4c0,0.2,0.2,0.4,0.4,0.4h0.9c0.2,0,0.4-0.2,0.4-0.4
		C-1251.8,425.8-1252,425.6-1252.2,425.6L-1252.2,425.6z M-1252.2,425.6"/>
	<path class="st0" d="M-1242,425.6h-8.4c-0.2,0-0.4,0.2-0.4,0.4c0,0.2,0.2,0.4,0.4,0.4h8.4c0.2,0,0.4-0.2,0.4-0.4
		C-1241.6,425.8-1241.8,425.6-1242,425.6L-1242,425.6z M-1242,425.6"/>
</g>
</svg>
