<?xml version="1.0" encoding="utf-8"?>
<!-- Generator: Adobe Illustrator 19.1.0, SVG Export Plug-In . SVG Version: 6.00 Build 0)  -->
<svg version="1.1" id="Camada_1" xmlns="http://www.w3.org/2000/svg" xmlns:xlink="http://www.w3.org/1999/xlink" x="0px" y="0px"
	 width="45.2px" height="26.3px" viewBox="0 0 45.2 26.3" style="enable-background:new 0 0 45.2 26.3;" xml:space="preserve">
<style type="text/css">
	.st0{fill:#FFFFFF;}
</style>
<g>
	<g>
		<path class="st0" d="M41.2,12.2c-0.9,0-1.7-0.3-2.3-1c-0.6-0.6-0.9-1.4-0.9-2.2c0-0.8,0.3-1.5,0.8-2.1C39.3,6.3,40,6,40.7,6
			c0.5,0,0.9,0.1,1.3,0.3c0-0.8-0.3-1.5-0.8-2.2c-0.6-0.8-1.3-1.3-2.3-1.7l-0.3-0.1V0.4l0.7,0.2c2,0.7,3.4,1.7,4.3,2.9
			c0.9,1.2,1.4,2.6,1.4,4.1c0,1.3-0.4,2.4-1.1,3.2C43.1,11.7,42.2,12.2,41.2,12.2z M40.7,7c-0.4,0-0.8,0.2-1.2,0.6
			C39.1,8,38.9,8.5,38.9,9c0,0.6,0.2,1.1,0.6,1.5c0.4,0.4,0.9,0.7,1.6,0.7c0.7,0,1.4-0.3,1.9-0.9c0.6-0.6,0.8-1.5,0.8-2.6
			c0-1.3-0.4-2.5-1.2-3.5c-0.3-0.4-0.6-0.7-1.1-1c0.1,0.1,0.2,0.3,0.3,0.4c0.7,0.9,1,1.9,1,3c0,0.3-0.1,0.5-0.2,0.7
			c-0.1,0.2-0.3,0.3-0.5,0.3c-0.2,0-0.4-0.1-0.5-0.2C41.5,7.1,41.1,7,40.7,7z M33.6,12.2c-0.9,0-1.7-0.3-2.3-0.9
			c-0.6-0.6-0.9-1.4-0.9-2.2c0-0.8,0.3-1.5,0.8-2.1c0.6-0.6,1.2-0.9,2-0.9c0.5,0,0.9,0.1,1.3,0.3c0-0.8-0.3-1.5-0.8-2.2
			c-0.6-0.8-1.3-1.3-2.3-1.7l-0.3-0.1V0.4l0.7,0.2c2,0.7,3.4,1.7,4.3,2.9l0,0c0.9,1.2,1.4,2.6,1.4,4.1c0,1.3-0.4,2.4-1.1,3.2
			C35.5,11.7,34.6,12.2,33.6,12.2z M33.1,7c-0.5,0-0.9,0.2-1.2,0.6C31.5,8,31.3,8.5,31.3,9c0,0.6,0.2,1.1,0.7,1.5
			c0.4,0.4,1,0.7,1.6,0.7c0.7,0,1.4-0.3,1.9-0.9c0.6-0.6,0.8-1.5,0.8-2.6c0-1.3-0.4-2.5-1.2-3.5l0,0c-0.3-0.4-0.6-0.7-1.1-1
			c0.1,0.1,0.2,0.3,0.3,0.4c0.7,0.9,1,1.9,1,3c0,0.3-0.1,0.5-0.2,0.7c-0.1,0.2-0.3,0.3-0.6,0.3c-0.2,0-0.4-0.1-0.5-0.2
			C33.9,7.1,33.6,7,33.1,7z"/>
	</g>
	<g>
		<path class="st0" d="M11.6,12.2c-1,0-1.9-0.4-2.7-1.3C8.2,10.1,7.8,9,7.8,7.7c0-1.5,0.5-2.9,1.4-4.1c0.9-1.2,2.4-2.2,4.3-2.9
			l0.7-0.2v1.9l-0.3,0.1c-1,0.4-1.8,0.9-2.3,1.7c-0.5,0.7-0.8,1.5-0.8,2.2C11.2,6.1,11.6,6,12,6c0.7,0,1.4,0.3,2,0.9
			c0.6,0.6,0.8,1.3,0.8,2.1c0,0.8-0.3,1.6-0.9,2.2C13.3,11.8,12.5,12.2,11.6,12.2z M11.1,3.1c-0.4,0.3-0.8,0.7-1.1,1
			c-0.8,1-1.2,2.2-1.2,3.5c0,1.1,0.3,1.9,0.8,2.6c0.6,0.6,1.2,0.9,1.9,0.9c0.6,0,1.1-0.2,1.6-0.7c0.4-0.4,0.7-0.9,0.7-1.5
			c0-0.5-0.2-1-0.6-1.4C12.9,7.2,12.5,7,12,7c-0.4,0-0.7,0.1-1,0.3c-0.1,0.1-0.3,0.2-0.5,0.2c-0.2,0-0.5-0.1-0.6-0.3
			C9.8,7,9.8,6.8,9.8,6.5c0-1,0.3-2,1-3C10.9,3.4,11,3.2,11.1,3.1z M4,12.2c-1,0-1.9-0.4-2.7-1.3C0.6,10.1,0.3,9,0.3,7.7
			c0-1.5,0.5-2.9,1.4-4.1C2.6,2.4,4.1,1.4,6,0.7l0.7-0.2v1.9L6.4,2.4C5.4,2.7,4.6,3.3,4,4.1C3.5,4.8,3.3,5.5,3.2,6.3
			C3.6,6.1,4,6,4.5,6c0.7,0,1.4,0.3,1.9,0.9C7,7.5,7.2,8.2,7.2,9c0,0.8-0.3,1.6-0.9,2.2C5.7,11.8,4.9,12.2,4,12.2z M3.5,3.1
			c-0.4,0.3-0.8,0.7-1.1,1c-0.8,1-1.2,2.2-1.2,3.5c0,1.1,0.3,1.9,0.8,2.6c0.5,0.6,1.2,0.9,1.9,0.9c0.6,0,1.1-0.2,1.6-0.7
			C6,10.1,6.2,9.6,6.2,9c0-0.5-0.2-1-0.6-1.4C5.3,7.2,4.9,7,4.5,7c-0.4,0-0.8,0.1-1,0.3C3.2,7.5,2.6,7.6,2.4,7.2
			C2.3,7,2.2,6.8,2.2,6.5c0-1,0.3-2,1-3C3.3,3.4,3.4,3.2,3.5,3.1z"/>
	</g>
	<g>
		<path class="st0" d="M16.9,22.1c0.5,0,1,0.2,1.3,0.6c0.4,0.4,0.6,0.8,0.6,1.3c0,0.5-0.2,1-0.6,1.3c-0.4,0.4-0.8,0.5-1.3,0.5
			c-0.5,0-1-0.2-1.3-0.5C15.2,25,15,24.5,15,24c0-0.5,0.2-1,0.6-1.3C15.9,22.3,16.4,22.1,16.9,22.1z"/>
		<path class="st0" d="M22.7,22.1c0.5,0,1,0.2,1.3,0.6c0.4,0.4,0.6,0.8,0.6,1.3c0,0.5-0.2,1-0.6,1.3c-0.4,0.4-0.8,0.5-1.3,0.5
			c-0.5,0-1-0.2-1.3-0.5C21,25,20.8,24.5,20.8,24c0-0.5,0.2-1,0.6-1.3C21.7,22.3,22.2,22.1,22.7,22.1z"/>
		<path class="st0" d="M28.5,22.1c0.5,0,1,0.2,1.3,0.6c0.4,0.4,0.6,0.8,0.6,1.3c0,0.5-0.2,1-0.6,1.3c-0.4,0.4-0.8,0.5-1.3,0.5
			c-0.5,0-1-0.2-1.3-0.5c-0.4-0.4-0.6-0.8-0.6-1.3c0-0.5,0.2-1,0.6-1.3C27.5,22.3,27.9,22.1,28.5,22.1z"/>
	</g>
</g>
</svg>
