<?xml version="1.0" encoding="utf-8"?>
<!-- Generator: Adobe Illustrator 19.1.0, SVG Export Plug-In . SVG Version: 6.00 Build 0)  -->
<svg version="1.1" id="Camada_1" xmlns="http://www.w3.org/2000/svg" xmlns:xlink="http://www.w3.org/1999/xlink" x="0px" y="0px"
	 width="42.3px" height="36.4px" viewBox="0 0 42.3 36.4" style="enable-background:new 0 0 42.3 36.4;" xml:space="preserve">
<style type="text/css">
	.st0{fill:#FFFFFF;}
</style>
<g>
	<path class="st0" d="M37.1,7.1H35V5c0-2.6-2.1-4.7-4.7-4.7H5.2C2.6,0.3,0.5,2.4,0.5,5v14.8c0,2.6,2.1,4.7,4.7,4.7h2.1v2.1
		c0,2.6,2.1,4.7,4.7,4.7h19l4,4.7c0.1,0.2,0.3,0.2,0.5,0.2c0.1,0,0.2,0,0.2,0c0.3-0.1,0.5-0.4,0.5-0.7v-4.2h1c2.6,0,4.7-2.1,4.7-4.7
		V11.8C41.8,9.2,39.7,7.1,37.1,7.1L37.1,7.1z M5.2,23c-1.8,0-3.3-1.5-3.3-3.3V5c0-1.8,1.5-3.3,3.3-3.3h25.2c1.8,0,3.3,1.5,3.3,3.3
		v2.1H12c-2.6,0-4.7,2.1-4.7,4.7V23H5.2z M40.4,26.5c0,1.8-1.5,3.3-3.3,3.3h-1.7c-0.4,0-0.7,0.3-0.7,0.7v3l-2.9-3.5
		c-0.1-0.2-0.3-0.3-0.5-0.3H12c-1.8,0-3.3-1.5-3.3-3.3V11.8c0-1.8,1.5-3.3,3.3-3.3h25.2c1.8,0,3.3,1.5,3.3,3.3V26.5z M40.4,26.5
		 M23.3,22.2c0-0.2,0-0.3,0-0.4c0-0.5,0.1-0.9,0.2-1.2c0.1-0.3,0.3-0.5,0.5-0.8c0.2-0.2,0.4-0.5,0.9-0.8c0.4-0.4,0.7-0.7,0.8-0.9
		s0.2-0.5,0.2-0.7c0-0.5-0.2-0.9-0.5-1.2c-0.4-0.3-0.8-0.5-1.3-0.5c-0.5,0-0.9,0.2-1.3,0.5c-0.3,0.3-0.6,0.8-0.7,1.5l-1.2-0.1
		c0.1-0.9,0.4-1.6,1-2.1s1.3-0.7,2.2-0.7c0.9,0,1.7,0.3,2.3,0.8c0.6,0.5,0.8,1.1,0.8,1.9c0,0.4-0.1,0.8-0.3,1.2s-0.6,0.8-1.2,1.3
		c-0.4,0.3-0.6,0.6-0.8,0.8c-0.1,0.2-0.2,0.3-0.3,0.6c-0.1,0.2-0.1,0.6-0.1,1H23.3z M23.2,24.6v-1.4h1.4v1.4H23.2z"/>
</g>
</svg>
