<?xml version="1.0" encoding="utf-8"?>
<!-- Generator: Adobe Illustrator 19.1.0, SVG Export Plug-In . SVG Version: 6.00 Build 0)  -->
<svg version="1.1" id="Camada_1" xmlns="http://www.w3.org/2000/svg" xmlns:xlink="http://www.w3.org/1999/xlink" x="0px" y="0px"
	 width="138.5px" height="63.8px" viewBox="-410 249.2 138.5 63.8" style="enable-background:new -410 249.2 138.5 63.8;"
	 xml:space="preserve">
<style type="text/css">
	.st0{fill:#FFFFFF;}
	.st1{fill:#0792D4;}
	.st2{fill:#2B6994;}
	.st3{fill:#334D7B;}
</style>
<g>
	<g>
		<g>
			<g>
				<path class="st0" d="M-341.8,297.8h-17.7l-10.2-19.5l2.1,6.5l-1.4,13h-17.5l5-47.1h16.8l11,20.4l-2.1-6.1l1.5-14.3h17.5
					L-341.8,297.8z"/>
				<path class="st0" d="M-390.2,297.8h-17.7c1.2-11.1,4.7-44.4,5-47.1h17.6L-390.2,297.8z"/>
				<path class="st0" d="M-333.2,250.7h20c15.9,0,19.1,8.5,17.9,18.4c-0.6,4.9-3.3,10-8.8,11.8l10.8,24.7h-18.3l-13.1-32h4.6h6.9
					c2.4,0,3-1.9,3.1-3.1c0.2-2.2-1.6-3.6-3.6-3.6h-7.7l-0.6,6h-4.3l3.7,7.1l-2,17.8h-13.5L-333.2,250.7z"/>
			</g>
			<g>
				<path class="st1" d="M-299.3,289.6l7.1,15.9c0,0,8.3-14.5,19.2-19.4l-15.3-5.9C-288.2,280.1-294.6,282.5-299.3,289.6z"/>
				<path class="st2" d="M-291.2,305.7c0,0,5-9,13.6-15l4.3,4.3C-273.3,295-282.2,297.8-291.2,305.7z"/>
				<path class="st3" d="M-289.9,305.6c0,0,6.2-5,12.9-7.3l1.8,2.8C-275.1,301.1-284,303.3-289.9,305.6z"/>
			</g>
		</g>
	</g>
	<g>
		<g>
			<g>
				<path class="st0" d="M-403.8,302.3c0.5,0,0.9,0.1,1.2,0.2c0.4,0.1,0.6,0.3,0.9,0.5c0.2,0.2,0.4,0.4,0.5,0.7
					c0.1,0.2,0.2,0.5,0.1,0.8c0,0.3-0.1,0.6-0.3,0.9c-0.2,0.3-0.4,0.5-0.6,0.7c-0.3,0.2-0.6,0.4-0.9,0.5c-0.4,0.1-0.8,0.2-1.3,0.2
					h-1l-0.1,1h0.8l-0.1,1.4h-3.9l0.1-1.4h0.8l0.4-4.1h-0.7l0.1-1.4C-407.8,302.3-403.8,302.3-403.8,302.3z M-404.2,305.4
					c0.2,0,0.4-0.1,0.5-0.2c0.1-0.1,0.2-0.4,0.3-0.7c0-0.3,0-0.6-0.1-0.7c-0.1-0.1-0.3-0.2-0.5-0.2h-0.8l-0.2,1.8H-404.2z"/>
				<path class="st0" d="M-392,303.6h-0.8l-0.2,2.1c-0.1,0.5-0.2,1-0.4,1.4c-0.2,0.4-0.4,0.8-0.8,1.1c-0.3,0.3-0.7,0.6-1.1,0.8
					c-0.4,0.2-1,0.3-1.5,0.3c-0.6,0-1.1-0.1-1.5-0.3c-0.4-0.2-0.8-0.4-1-0.8c-0.3-0.3-0.4-0.7-0.5-1.1c-0.1-0.4-0.1-0.9-0.1-1.4
					l0.2-2.1h-0.7l0.1-1.4h4l-0.1,1.4h-0.8l-0.2,2.1c0,0.4-0.1,0.7,0,1c0,0.3,0.1,0.5,0.1,0.6c0.1,0.2,0.2,0.3,0.3,0.4
					c0.1,0.1,0.3,0.1,0.4,0.1c0.2,0,0.3,0,0.4-0.1c0.1-0.1,0.3-0.2,0.4-0.4c0.1-0.2,0.2-0.4,0.3-0.6c0.1-0.3,0.1-0.6,0.2-1l0.2-2.1
					h-0.8l0.1-1.4h3.9L-392,303.6z"/>
				<path class="st0" d="M-386.7,302.3c0.5,0,0.9,0.1,1.2,0.2s0.6,0.3,0.7,0.4c0.2,0.2,0.3,0.4,0.4,0.7c0.1,0.3,0.1,0.5,0,0.8
					c0,0.3-0.1,0.5-0.3,0.7c-0.2,0.2-0.4,0.4-0.6,0.5c0.3,0.1,0.6,0.3,0.8,0.6c0.2,0.2,0.2,0.5,0.2,0.9c0,0.3-0.1,0.6-0.2,0.8
					c-0.1,0.3-0.3,0.5-0.5,0.7c-0.2,0.2-0.5,0.4-0.9,0.5s-0.8,0.2-1.3,0.2h-4.4l0.1-1.4h0.7h0.1l0.4-4.2h-0.8l0.1-1.4H-386.7z
					 M-387.7,307.8c0.3,0,0.5-0.1,0.7-0.2s0.3-0.3,0.4-0.6c0-0.3,0-0.5-0.2-0.6c-0.2-0.2-0.4-0.2-0.7-0.2h-0.8l-0.2,1.6H-387.7z
					 M-386.6,304.3c0-0.3,0-0.4-0.1-0.5c-0.1-0.1-0.3-0.2-0.5-0.2h-0.8l-0.1,1.4h0.8c0.2,0,0.4-0.1,0.5-0.2
					C-386.7,304.8-386.6,304.6-386.6,304.3z"/>
				<path class="st0" d="M-377.1,306.9l-0.2,2.2h-6.3l0.1-1.4h0.8l0.4-4.2h-0.7l0.1-1.4h4l-0.1,1.4h-0.8l-0.4,4.2h1.5l0.1-0.8
					H-377.1z"/>
				<path class="st0" d="M-373.1,307.8h0.8l-0.1,1.4h-4l0.1-1.4h0.8l0.4-4.2h-0.8l0.1-1.4h4l-0.1,1.4h-0.8L-373.1,307.8z"/>
				<path class="st0" d="M-364.4,307.4C-364.4,307.4-364.4,307.5-364.4,307.4c-0.1,0.1-0.1,0.1-0.1,0.1c-0.3,0.5-0.8,0.9-1.3,1.2
					c-0.6,0.3-1.2,0.5-2,0.5c-0.6,0-1.1-0.1-1.6-0.3c-0.5-0.2-0.9-0.4-1.2-0.8c-0.3-0.3-0.5-0.7-0.7-1.1c-0.1-0.4-0.2-0.9-0.1-1.4
					s0.2-1,0.4-1.4c0.2-0.4,0.5-0.8,0.9-1.1c0.4-0.3,0.8-0.6,1.3-0.8c0.5-0.2,1-0.3,1.6-0.3c0.2,0,0.4,0,0.5,0.1
					c0.2,0,0.3,0.1,0.4,0.2c0.1,0.1,0.2,0.1,0.3,0.2s0.2,0.2,0.2,0.2l0.1-0.6h1.7l-0.3,2.5h-1.6c0-0.2,0-0.4-0.1-0.5
					c-0.1-0.2-0.2-0.3-0.3-0.4c-0.1-0.1-0.3-0.2-0.4-0.2c-0.2,0-0.3-0.1-0.5-0.1c-0.2,0-0.4,0.1-0.5,0.1c-0.2,0.1-0.3,0.2-0.5,0.4
					c-0.1,0.2-0.3,0.4-0.4,0.6c-0.1,0.3-0.2,0.6-0.2,1s0,0.7,0,1c0.1,0.2,0.2,0.4,0.3,0.6c0.1,0.1,0.3,0.3,0.4,0.3
					c0.2,0.1,0.3,0.1,0.5,0.1c0.4,0.1,0.8,0,1.1-0.1s0.7-0.4,1-0.7L-364.4,307.4z"/>
				<path class="st0" d="M-356.5,307.8h0.7l-0.1,1.4h-3.8l0.1-1.4h0.7l-0.1-0.5h-1.9l-0.2,0.5h0.7l-0.1,1.4h-3.3l0.1-1.4h0.7l2-4.2
					h-0.4l0.1-1.4h3.1h0.2L-356.5,307.8z M-360.3,306.1h1.1l-0.4-1.5L-360.3,306.1z"/>
				<path class="st0" d="M-348.4,307.4C-348.4,307.4-348.4,307.5-348.4,307.4c-0.1,0.1-0.1,0.1-0.1,0.1c-0.3,0.5-0.8,0.9-1.3,1.2
					c-0.6,0.3-1.2,0.5-2,0.5c-0.6,0-1.1-0.1-1.6-0.3c-0.5-0.2-0.9-0.4-1.2-0.8c-0.3-0.3-0.5-0.7-0.7-1.1c-0.1-0.4-0.2-0.9-0.1-1.4
					s0.2-1,0.4-1.4c0.2-0.4,0.5-0.8,0.9-1.1c0.4-0.3,0.8-0.6,1.3-0.8c0.5-0.2,1-0.3,1.6-0.3c0.2,0,0.4,0,0.5,0.1
					c0.2,0,0.3,0.1,0.4,0.2c0.1,0.1,0.2,0.1,0.3,0.2s0.2,0.2,0.2,0.2l0.1-0.6h1.7l-0.3,2.5h-1.6c0-0.2,0-0.4-0.1-0.5
					c-0.1-0.2-0.2-0.3-0.3-0.4c-0.1-0.1-0.3-0.2-0.4-0.2c-0.2,0-0.3-0.1-0.5-0.1c-0.2,0-0.4,0.1-0.5,0.1c-0.2,0.1-0.3,0.2-0.5,0.4
					c-0.1,0.2-0.3,0.4-0.4,0.6c-0.1,0.3-0.2,0.6-0.2,1s0,0.7,0,1c0.1,0.2,0.2,0.4,0.3,0.6c0.1,0.1,0.3,0.3,0.4,0.3
					c0.2,0.1,0.3,0.1,0.5,0.1c0.4,0.1,0.8,0,1.1-0.1s0.7-0.4,1-0.7L-348.4,307.4z"/>
				<path class="st0" d="M-343.4,302.1c0.6,0,1.1,0.1,1.5,0.3c0.4,0.2,0.8,0.4,1.1,0.8c0.3,0.3,0.5,0.7,0.6,1.1
					c0.1,0.4,0.2,0.9,0.1,1.4s-0.2,1-0.4,1.4s-0.5,0.8-0.8,1.1c-0.4,0.3-0.8,0.6-1.2,0.8c-0.5,0.2-1,0.3-1.6,0.3s-1.1-0.1-1.5-0.3
					s-0.8-0.4-1.1-0.8c-0.3-0.3-0.5-0.7-0.6-1.1c-0.1-0.4-0.2-0.9-0.1-1.4s0.2-1,0.4-1.4c0.2-0.4,0.5-0.8,0.8-1.1
					c0.4-0.3,0.8-0.6,1.2-0.8C-344.4,302.2-343.9,302.1-343.4,302.1z M-344,307.8c0.2,0,0.3,0,0.4-0.1c0.1-0.1,0.3-0.2,0.4-0.4
					c0.1-0.2,0.2-0.4,0.3-0.6c0.1-0.3,0.2-0.6,0.2-1c0-0.4,0-0.7,0-1c0-0.3-0.1-0.5-0.2-0.6c-0.1-0.2-0.2-0.3-0.3-0.4
					c-0.1-0.1-0.3-0.1-0.4-0.1s-0.3,0-0.4,0.1c-0.1,0.1-0.3,0.2-0.4,0.4c-0.1,0.2-0.2,0.4-0.3,0.6c-0.1,0.3-0.2,0.6-0.2,1
					c0,0.4,0,0.7,0,1c0,0.3,0.1,0.5,0.2,0.6c0.1,0.2,0.2,0.3,0.3,0.4C-344.2,307.8-344.1,307.8-344,307.8z"/>
				<path class="st0" d="M-332.8,302.3l-0.2,2.2h-1.6l0.1-0.8h-1.6l-0.1,1.4h1.7l-0.2,1.1h-1.7l-0.2,1.6h1.6l0.1-0.8h1.6l-0.2,2.2
					h-6.3l0.1-1.4h0.8l0.4-4.2h-0.8l0.1-1.4h6.4V302.3z"/>
				<path class="st0" d="M-327.6,305c0.2,0.1,0.4,0.2,0.7,0.3c0.2,0.1,0.5,0.2,0.7,0.4c0.2,0.2,0.4,0.4,0.5,0.6
					c0.1,0.2,0.2,0.5,0.1,0.9c0,0.3-0.1,0.6-0.3,0.9c-0.2,0.3-0.4,0.5-0.6,0.7c-0.3,0.2-0.6,0.3-0.9,0.4c-0.4,0.1-0.7,0.1-1.2,0.1
					c-0.4,0-0.8,0-1-0.1c-0.3-0.1-0.5-0.1-0.7-0.2c-0.2-0.1-0.3-0.2-0.4-0.3c-0.1-0.1-0.2-0.2-0.2-0.3l-0.1,0.7h-1.6l0.2-2.3h1.6
					c0.1,0.2,0.2,0.4,0.4,0.6c0.1,0.1,0.3,0.3,0.5,0.4c0.2,0.1,0.5,0.2,0.9,0.2c0.1,0,0.2,0,0.3,0c0.1,0,0.2-0.1,0.3-0.1
					s0.2-0.1,0.2-0.2c0.1-0.1,0.1-0.1,0.1-0.2c0-0.2-0.1-0.3-0.3-0.4c-0.2-0.1-0.6-0.2-1-0.3c-0.2-0.1-0.5-0.1-0.8-0.2
					c-0.3-0.1-0.6-0.2-0.9-0.4c-0.3-0.2-0.5-0.4-0.7-0.7c-0.2-0.3-0.2-0.6-0.2-1.1c0-0.4,0.2-0.7,0.4-1c0.2-0.3,0.5-0.5,0.7-0.7
					c0.3-0.2,0.6-0.3,0.9-0.4c0.3-0.1,0.6-0.1,0.9-0.1c0.3,0,0.5,0,0.8,0.1c0.2,0.1,0.4,0.1,0.6,0.2c0.2,0.1,0.3,0.2,0.4,0.3
					c0.1,0.1,0.2,0.2,0.2,0.3l0.1-0.8h1.6l-0.2,2.2h-1.6c-0.1-0.1-0.2-0.3-0.4-0.4c-0.1-0.1-0.3-0.2-0.4-0.3
					c-0.2-0.1-0.4-0.1-0.6-0.1c-0.2,0-0.3,0-0.4,0s-0.2,0.1-0.2,0.1c-0.1,0-0.1,0.1-0.1,0.1v0.1c0,0.1,0,0.2,0.2,0.3
					c0.1,0.1,0.3,0.1,0.5,0.2c0.2,0.1,0.4,0.1,0.6,0.2C-328,304.8-327.8,304.9-327.6,305z"/>
			</g>
		</g>
		<path class="st0" d="M-344,301.1L-344,301.1c0.2,0,0.3,0.1,0.6,0.2c0.3,0.2,0.6,0.2,0.9,0.3h0.1c0.3,0,0.6-0.1,0.8-0.3
			c0.2-0.2,0.3-0.5,0.4-0.9c0-0.1,0-0.2,0-0.3h-0.8c0,0.2-0.1,0.4-0.1,0.4c-0.1,0.1-0.2,0.1-0.3,0.1c-0.2,0-0.4-0.1-0.6-0.2
			c-0.3-0.2-0.7-0.3-1-0.3c-0.1,0-0.2,0-0.4,0.1c-0.5,0.1-0.7,0.5-0.8,1.1c0,0.1,0,0.1,0,0.2h0.8
			C-344.3,301.2-344.2,301.1-344,301.1z"/>
		<path class="st0" d="M-351.4,309.8l0.2-0.7h-0.8l-0.2,0.5l0,0l-0.3,0.7c0.1,0,0.2,0,0.3,0c0.3,0,0.5,0,0.6,0.1
			c0.1,0,0.1,0.1,0.1,0.2l0,0c0,0.1-0.1,0.1-0.2,0.2c-0.1,0-0.3,0.1-0.5,0.1h-0.1c-0.3,0-0.6-0.1-1-0.2l-0.1,0.7
			c0.5,0.1,1,0.1,1.3,0.1c0.4,0,0.8,0,1-0.1c0.3-0.1,0.6-0.3,0.7-0.6c0-0.1,0.1-0.1,0.1-0.2c0-0.2-0.1-0.4-0.3-0.5
			C-350.7,309.9-351,309.8-351.4,309.8z"/>
	</g>
</g>
</svg>
